.
..............................Site Info...........................

 -   http://www.scenetime.com  *_*   

SceneTime is going to Close sign up on march/1, hurry up! get in before the doors are closed.

     We care to share . Join us on  http://www.scenetime.com 

    Be the first to get new release at  http://www.scenetime.com

        Seed back for speed


...................................NFO:.................................................[img]http://img837.imageshack.us/img837/9776/happyd.jpg[/img]


[color=blue][size=5][b]Happy.Feet.Two.2011.BDRip.XVID.AC3.HQ.Hive-CM8[/b][/size][/color]


[b]Thx Hive

CM8 Doing It Right The First Time :D


Source: Bluray

Video: 720x304 @bitrate 1700 2pass
Audio: English DTS to AC3 5.1 @448
Subs: Yes, English in srt /subs
Sample: Yes, included[/b]
 
http://www.imdb.com/title/tt1402488/


General
Complete name                  : Happy.Feet.Two.2011.BDRip.XVID.AC3.HQ.Hive-CM8.avi
Format                         : AVI
Format/Info                    : Audio Video Interleave
File size                      : 1.50 GiB
Duration                       : 1h 39mn
Overall bit rate               : 2 153 Kbps
Writing application            : Nandub v1.0rc2
Writing library                : Nandub build 1853/release

Video
ID                             : 0
Format                         : MPEG-4 Visual
Format profile                 : Advanced Simple@L5
Format settings, BVOP          : 1
Format settings, QPel          : Yes
Format settings, GMC           : No warppoints
Format settings, Matrix        : Default (H.263)
Muxing mode                    : Packed bitstream
Codec ID                       : XVID
Codec ID/Hint                  : XviD
Duration                       : 1h 39mn
Bit rate                       : 1 696 Kbps
Width                          : 720 pixels
Height                         : 304 pixels
Display aspect ratio           : 2.35:1
Frame rate                     : 23.976 fps
Color space                    : YUV
Chroma subsampling             : 4:2:0
Bit depth                      : 8 bits
Scan type                      : Progressive
Compression mode               : Lossy
Bits/(Pixel*Frame)             : 0.323
Stream size                    : 1.18 GiB (79%)
Writing library                : XviD 1.2.1 (UTC 2008-12-04)

Audio
ID                             : 1
Format                         : AC-3
Format/Info                    : Audio Coding 3
Mode extension                 : CM (complete main)
Codec ID                       : 2000
Duration                       : 1h 39mn
Bit rate mode                  : Constant
Bit rate                       : 448 Kbps
Channel(s)                     : 6 channels
Channel positions              : Front: L C R, Side: L R, LFE
Sampling rate                  : 48.0 KHz
Bit depth                      : 16 bits
Compression mode               : Lossy
Delay relative to video        : 100ms
Stream size                    : 319 MiB (21%)
Alignment                      : Split accross interleaves
Interleave, duration           : 42 ms (1.00 video frame)
Interleave, preload duration   : 500 ms


Plot:
Mumble's son, Erik, is struggling to realize his talents in the Emperor Penguin world.
Meanwhile, Mumble and his family and friends discover a new threat to their home that
will take everyone working together to save them.


Cast:
Robin Williams  ...     Ramon / Lovelace (voice)
Elijah Wood     ...     Mumble (voice)
Pink            ...     Gloria (voice)
Hugo Weaving    ...     Noah the Elder (voice)
Brad Pitt       ...     Will the Krill (voice)
Matt Damon      ...     Bill the Krill (voice)
Hank Azaria     ...     The Mighty Sven (voice)


[img]http://img41.imageshack.us/img41/2435/hfhfhfhfhhffhfhf.png[/img]
[img]http://img72.imageshack.us/img72/5583/hfhfhfhfhfhfhf.png[/img]
[img]http://img525.imageshack.us/img525/4804/hfhfhfhfhfhf.png[/img]
[img]http://img39.imageshack.us/img39/8933/hfhfhfhfhf.png[/img]
[img]http://img707.imageshack.us/img707/6927/hfhfhfhfw.png[/img]
[img]http://img820.imageshack.us/img820/1488/hfhfhfz.png[/img]
[img]http://img191.imageshack.us/img191/3500/hfhf.png[/img]
[img]http://img256.imageshack.us/img256/8059/11560380.png[/img]



Greetz

ViSiON,SPK,SceneLovers,PRESTiGE,SANTi,3LT0N,YanKeeS,COPYxRIGHT,T0XiC
D2U,LKRG,Feel-Free,FLAWL3SS,WBZ,BHRG,26K,NOVA,TED,MAGNET,THC,jtr
Unevano,Rapeseed,SAFC,goldadvance,KaN1vE,Pinnz,Wayne
Mr Hive,and most P2P groups
Great Work Guys :D

LOOKING FOR ANYTHING YOU WANT TO LOOK AND SOUND BETTER

CM8@hushmail.com